<svg width="50" height="50" viewBox="0 0 311 210" fill="none" xmlns="http://www.w3.org/2000/svg">
<path d="M168.5 55C126.833 88.3333 122.667 134.167 156 192.5M243.5 155C285.167 121.667 289.333 76.7305 256 18.3972M206 5C179.478 5 154.043 15.5357 135.289 34.2893C116.536 53.043 106 78.4784 106 105C106 131.522 116.536 156.957 135.289 175.711C154.043 194.464 179.478 205 206 205C232.522 205 257.957 194.464 276.711 175.711C295.464 156.957 306 131.522 306 105C306 78.4784 295.464 53.043 276.711 34.2893C257.957 15.5357 232.522 5 206 5ZM206 42.5C189.424 42.5 173.527 49.0848 161.806 60.8058C150.085 72.5269 143.5 88.424 143.5 105C143.5 121.576 150.085 137.473 161.806 149.194C173.527 160.915 189.424 167.5 206 167.5C222.576 167.5 238.473 160.915 250.194 149.194C261.915 137.473 268.5 121.576 268.5 105C268.5 88.424 261.915 72.5269 250.194 60.8058C238.473 49.0848 222.576 42.5 206 42.5Z" stroke="black" stroke-width="10" stroke-linejoin="round"/>
<path d="M38.3333 38.3333V138.333M38.3333 38.3333H88.3333C97.1739 38.3333 105.652 41.8452 111.904 48.0964C118.155 54.3476 121.667 62.8261 121.667 71.6667C121.667 80.5072 118.155 88.9857 111.904 95.2369C105.652 101.488 97.1739 105 88.3333 105H38.3333V38.3333ZM38.3333 138.333C29.4928 138.333 21.0143 141.845 14.7631 148.096C8.51189 154.348 5 162.826 5 171.667M38.3333 138.333H105C118.261 138.333 130.979 131.31 140.355 118.807C149.732 106.305 155 89.3478 155 71.6667C155 53.9856 149.732 37.0286 140.355 24.5262C130.979 12.0238 118.261 5 105 5H5V171.667M5 171.667C5 180.507 8.51189 188.986 14.7631 195.237C21.0143 201.488 29.4928 205 38.3333 205V155" stroke="black" stroke-width="10" stroke-linecap="square" stroke-linejoin="round"/>
</svg>
